<svg data-v-2cb57da0="" version="1.0" xmlns="http://www.w3.org/2000/svg" xmlns:xlink="http://www.w3.org/1999/xlink" width="100%" height="100%" viewBox="0 0 340.000000 250.000000" preserveAspectRatio="xMidYMid meet" color-interpolation-filters="sRGB" style="margin: auto;"><rect data-v-2cb57da0="" x="0" y="0" width="100%" height="100%" fill="#fff9f7" fill-opacity="1" class="background"></rect> <rect data-v-2cb57da0="" x="0" y="0" width="100%" height="100%" fill="url(#watermark)" fill-opacity="1" class="watermarklayer"></rect> <g data-v-2cb57da0="" class="iconmbgsvg" transform="translate(89.19999694824219,59.30030059814453)"><g fill="#300000" hollow-target="textRect"><g transform="translate(15.800003051757812,0)" mask="url(#b242983a-14f0-4384-9e38-8c00ee826f1f)"><g><rect fill="#300000" fill-opacity="0" stroke-width="2" x="0" y="0" width="130" height="131.39940364886036" class="image-rect"></rect> <svg x="0" y="0" width="130" height="131.39940364886036" filtersec="colorsb4541251858" class="image-svg-svg primary" style="overflow: visible;"><svg xmlns="http://www.w3.org/2000/svg" viewBox="15.260000228881836 10 936.4400024414062 946.52001953125"><path fill="#300000" d="M483.48 10c237.9 0 434.77 175.54 468.22 404.15h-87.85C831.27 233.65 673.37 96.72 483.48 96.72S135.69 233.64 103.11 414.15H15.26C48.71 185.54 245.58 10 483.48 10z"></path><path fill="#ea3637" d="M951.7 552.37c-33.45 228.61-230.32 404.15-468.22 404.15-237.89 0-434.76-175.54-468.22-404.15h87.85c32.58 180.5 190.48 317.42 380.37 317.42s347.79-136.92 380.37-317.42h87.85z"></path><path fill="#ea3637" d="M312.38 186.91c148.97-86.01 335.71-47.26 439.3 83.8l-55.01 31.76c-85.66-101.25-234.03-129.9-352.94-61.26-118.9 68.65-168.28 211.48-123.42 336.28l-55.01 31.76c-61.7-155.24-1.88-336.33 147.08-422.34z"></path><path fill="#300000" d="M801.66 357.26l-55.01 31.76c44.85 124.8-4.52 267.63-123.42 336.28s-267.28 39.99-352.94-61.25l-55.01 31.76c103.6 131.06 290.34 169.8 439.3 83.8 148.96-86.01 208.78-267.1 147.08-422.35z"></path><path fill="#300000" d="M273.31 361.92c60.99-105.65 189.43-148.07 299.53-104.31l-22.53 39.02c-88.51-31.81-189.8 3.2-238.49 87.53s-28.37 189.56 43.44 250.31l-22.53 39.02C239.79 600 212.32 467.56 273.31 361.92z"></path><path fill="#ea3637" d="M634.22 293.05l-22.52 39.01c71.81 60.75 92.13 165.98 43.44 250.3-48.69 84.33-149.98 119.34-238.49 87.53l-22.52 39.01c110.1 43.76 238.53 1.34 299.53-104.31 60.99-105.64 33.51-238.07-59.44-311.54z"></path><path fill="#ea3637" d="M347.06 483.25c0-68.57 50.6-125.33 116.5-134.97v25.32c-52.03 9.39-91.5 54.91-91.5 109.64 0 54.74 39.47 100.25 91.5 109.64v25.32c-65.9-9.62-116.5-66.37-116.5-134.95z"></path><path fill="#300000" d="M503.4 348.29c65.9 9.64 116.5 66.39 116.5 134.97s-50.6 125.32-116.5 134.97V592.9c52.03-9.39 91.5-54.91 91.5-109.64s-39.47-100.25-91.5-109.64v-25.33z"></path></svg></svg> <!----></g></g> <g transform="translate(0,48.19969940185547)"><g data-gra="path-name" fill-rule="" class="tp-name"><g transform="scale(1)"><g><path d="M0.5-35L0.5-27.15 11-27.15 11 0 19.4 0 19.4-27.15 30.05-27.15 30.05-35ZM63.05 0L55.3-12.9C59.35-14.8 61.6-18.3 61.6-23 61.6-30.2 56.3-35 47.5-35L34.45-35 34.45 0 42.85 0 42.85-11.4 47.15-11.4 53.65 0ZM42.85-27.15L48.65-27.15C51.65-27.15 52.85-24.9 52.85-23 52.85-21.1 51.65-18.85 48.65-18.85L42.85-18.85ZM91.45 0L100.5 0 86.5-35 78.55-35 64.55 0 73.6 0 75.6-5.5 89.45-5.5ZM78.3-12.85L80.8-19.65C81.55-21.65 82.45-24.8 82.5-24.8L82.55-24.8C82.6-24.8 83.5-21.65 84.25-19.65L86.75-12.85ZM103.4-35L103.4 0 111.8 0 111.8-11 116.75-11C125.35-11 130.55-15.5 130.55-23 130.55-30.5 125.35-35 116.75-35ZM111.8-18.85L111.8-27.15 116.6-27.15C119.85-27.15 121.8-25.6 121.8-23 121.8-20.4 119.85-18.85 116.6-18.85ZM132.55-35L132.55-27.15 143.05-27.15 143.05 0 151.45 0 151.45-27.15 162.1-27.15 162.1-35Z" transform="translate(-0.5, 35)"></path></g> <!----> <!----> <!----> <!----> <!----> <!----> <!----></g></g> <!----></g></g></g><mask id="b242983a-14f0-4384-9e38-8c00ee826f1f"><g fill="white"><g><rect fill-opacity="1" stroke-width="2" x="0" y="0" width="130" height="131.39940364886036" class="image-rect"></rect> <svg x="0" y="0" width="130" height="131.39940364886036" filtersec="colorsb4541251858" class="image-svg-svg primary" style="overflow: visible;"><svg xmlns="http://www.w3.org/2000/svg" viewBox="15.260000228881836 10 936.4400024414062 946.52001953125"><path d="M483.48 10c237.9 0 434.77 175.54 468.22 404.15h-87.85C831.27 233.65 673.37 96.72 483.48 96.72S135.69 233.64 103.11 414.15H15.26C48.71 185.54 245.58 10 483.48 10z"></path><path d="M951.7 552.37c-33.45 228.61-230.32 404.15-468.22 404.15-237.89 0-434.76-175.54-468.22-404.15h87.85c32.58 180.5 190.48 317.42 380.37 317.42s347.79-136.92 380.37-317.42h87.85z"></path><path d="M312.38 186.91c148.97-86.01 335.71-47.26 439.3 83.8l-55.01 31.76c-85.66-101.25-234.03-129.9-352.94-61.26-118.9 68.65-168.28 211.48-123.42 336.28l-55.01 31.76c-61.7-155.24-1.88-336.33 147.08-422.34z"></path><path d="M801.66 357.26l-55.01 31.76c44.85 124.8-4.52 267.63-123.42 336.28s-267.28 39.99-352.94-61.25l-55.01 31.76c103.6 131.06 290.34 169.8 439.3 83.8 148.96-86.01 208.78-267.1 147.08-422.35z"></path><path d="M273.31 361.92c60.99-105.65 189.43-148.07 299.53-104.31l-22.53 39.02c-88.51-31.81-189.8 3.2-238.49 87.53s-28.37 189.56 43.44 250.31l-22.53 39.02C239.79 600 212.32 467.56 273.31 361.92z"></path><path d="M634.22 293.05l-22.52 39.01c71.81 60.75 92.13 165.98 43.44 250.3-48.69 84.33-149.98 119.34-238.49 87.53l-22.52 39.01c110.1 43.76 238.53 1.34 299.53-104.31 60.99-105.64 33.51-238.07-59.44-311.54z"></path><path d="M347.06 483.25c0-68.57 50.6-125.33 116.5-134.97v25.32c-52.03 9.39-91.5 54.91-91.5 109.64 0 54.74 39.47 100.25 91.5 109.64v25.32c-65.9-9.62-116.5-66.37-116.5-134.95z"></path><path d="M503.4 348.29c65.9 9.64 116.5 66.39 116.5 134.97s-50.6 125.32-116.5 134.97V592.9c52.03-9.39 91.5-54.91 91.5-109.64s-39.47-100.25-91.5-109.64v-25.33z"></path></svg></svg> </g></g> <g transform="translate(-15.800003051757812,48.19969940185547)"><rect fill="black" fill-opacity="1" x="-3.5" y="-3.5" width="168.60000610351562" height="42"></rect><rect fill="black" fill-opacity="1" x="-3.5" y="-3.5"></rect></g><g transform="translate(-15.800003051757812,48.19969940185547)" fill="black"><g data-gra="path-name" fill-rule="" class="tp-name"><g transform="scale(1)"><g><path d="M0.5-35L0.5-27.15 11-27.15 11 0 19.4 0 19.4-27.15 30.05-27.15 30.05-35ZM63.05 0L55.3-12.9C59.35-14.8 61.6-18.3 61.6-23 61.6-30.2 56.3-35 47.5-35L34.45-35 34.45 0 42.85 0 42.85-11.4 47.15-11.4 53.65 0ZM42.85-27.15L48.65-27.15C51.65-27.15 52.85-24.9 52.85-23 52.85-21.1 51.65-18.85 48.65-18.85L42.85-18.85ZM91.45 0L100.5 0 86.5-35 78.55-35 64.55 0 73.6 0 75.6-5.5 89.45-5.5ZM78.3-12.85L80.8-19.65C81.55-21.65 82.45-24.8 82.5-24.8L82.55-24.8C82.6-24.8 83.5-21.65 84.25-19.65L86.75-12.85ZM103.4-35L103.4 0 111.8 0 111.8-11 116.75-11C125.35-11 130.55-15.5 130.55-23 130.55-30.5 125.35-35 116.75-35ZM111.8-18.85L111.8-27.15 116.6-27.15C119.85-27.15 121.8-25.6 121.8-23 121.8-20.4 119.85-18.85 116.6-18.85ZM132.55-35L132.55-27.15 143.05-27.15 143.05 0 151.45 0 151.45-27.15 162.1-27.15 162.1-35Z" transform="translate(-0.5, 35)"></path></g>       </g></g> </g></mask><defs v-gra="od"></defs></svg>