<?xml version="1.0" encoding="UTF-8" standalone="no"?>
<svg
   data-v-2cb57da0=""
   version="1.0"
   width="184.13676"
   height="184.13676"
   viewBox="0 0 184.13676 184.13676"
   preserveAspectRatio="xMidYMid"
   color-interpolation-filters="sRGB"
   id="svg274"
   sodipodi:docname="trapt-box.svg"
   inkscape:version="1.2.1 (9c6d41e410, 2022-07-14)"
   xmlns:inkscape="http://www.inkscape.org/namespaces/inkscape"
   xmlns:sodipodi="http://sodipodi.sourceforge.net/DTD/sodipodi-0.dtd"
   xmlns="http://www.w3.org/2000/svg"
   xmlns:svg="http://www.w3.org/2000/svg">
  <sodipodi:namedview
     id="namedview5862"
     pagecolor="#ffffff"
     bordercolor="#000000"
     borderopacity="0.25"
     inkscape:showpageshadow="2"
     inkscape:pageopacity="0.0"
     inkscape:pagecheckerboard="0"
     inkscape:deskcolor="#d1d1d1"
     showgrid="false"
     inkscape:zoom="4.8442254"
     inkscape:cx="87.939755"
     inkscape:cy="92.068382"
     inkscape:window-width="1920"
     inkscape:window-height="1137"
     inkscape:window-x="2992"
     inkscape:window-y="220"
     inkscape:window-maximized="1"
     inkscape:current-layer="svg274" />
  <style>
   @media (prefers-color-scheme: dark) {
      #traptMain stop {
        stop-color: #FFFFFF !important;
      }
   }
  </style>
  <rect
     style="opacity:1;fill:none;fill-opacity:1;stroke:none;stroke-width:0.096;stroke-linecap:round;stroke-linejoin:bevel;stroke-opacity:1"
     id="rect7641"
     width="184.13676"
     height="184.13676"
     x="0"
     y="0" />
  <g
     id="g468"
     clip-path="url(#clipPath4821)"
     transform="translate(-77.931618,-32.931618)">
    <path
       d="M 63,11.42 43.29,0 0,25.09 v 50.19 l 41.1,23.8 V 76.35 L 19.61,63.92 V 36.42 C 34.08,28.05 48.49,19.73 63,11.42 Z"
       id="path211"
       style="overflow:visible;fill:url(#traptMain);fill-opacity:1"
       transform="matrix(1.5015015,0,0,1.5015015,105,49.924927)" />
    <path
       d="M 43.87,50.37 63.45,38.76 46.09,28.7 26.69,40.18 43.87,50.12 Z M 49.81,26.48 67,36.42 v 0.25 L 86.58,25.09 69.21,14.99 Z"
       id="path213"
       style="overflow:visible;fill:url(#traptMain);fill-opacity:1.0"
       transform="matrix(1.5015015,0,0,1.5015015,105,49.924927)" />
    <path
       d="M 67,36.67 V 63.92 L 67.03,86.61 86.58,75.28 V 25.09 Z M 63.45,65.98 V 38.76 L 43.87,50.37 43.9,77.31 43.93,100 63.45,88.67 Z"
       id="path215"
       style="overflow:visible;fill:url(#traptAccent);fill-opacity:1"
       transform="matrix(1.5015015,0,0,1.5015015,105,49.924927)" />
  </g>
  <defs
     v-gra="od"
     id="defs272">
    <linearGradient
       id="traptAccent">
      <stop
         style="stop-color:#5f9ea0;stop-opacity:1;"
         offset="0"
         id="stop7480" />
    </linearGradient>
    <linearGradient
       id="traptMain">
      <stop
         style="stop-color:#222222;stop-opacity:1;"
         offset="0"
         id="stop7460" />
    </linearGradient>
  </defs>
</svg>
