<?xml version="1.0" encoding="UTF-8" standalone="no"?>
<svg
   data-v-2cb57da0=""
   version="1.0"
   width="184.13676"
   height="184.13676"
   viewBox="0 0 184.13676 184.13676"
   preserveAspectRatio="xMidYMid"
   color-interpolation-filters="sRGB"
   id="svg274"
   sodipodi:docname="trapt.svg"
   inkscape:version="1.2.1 (9c6d41e410, 2022-07-14)"
   xmlns:inkscape="http://www.inkscape.org/namespaces/inkscape"
   xmlns:sodipodi="http://sodipodi.sourceforge.net/DTD/sodipodi-0.dtd"
   xmlns="http://www.w3.org/2000/svg"
   xmlns:svg="http://www.w3.org/2000/svg">
  <sodipodi:namedview
     id="namedview5862"
     pagecolor="#ffffff"
     bordercolor="#000000"
     borderopacity="0.25"
     inkscape:showpageshadow="2"
     inkscape:pageopacity="0.0"
     inkscape:pagecheckerboard="0"
     inkscape:deskcolor="#d1d1d1"
     showgrid="false"
     inkscape:zoom="4.8442254"
     inkscape:cx="87.939755"
     inkscape:cy="92.068382"
     inkscape:window-width="1920"
     inkscape:window-height="1137"
     inkscape:window-x="2992"
     inkscape:window-y="220"
     inkscape:window-maximized="1"
     inkscape:current-layer="svg274" />
  <rect
     style="opacity:1;fill:none;fill-opacity:1;stroke:none;stroke-width:0.096;stroke-linecap:round;stroke-linejoin:bevel;stroke-opacity:1"
     id="rect7641"
     width="184.13676"
     height="184.13676"
     x="0"
     y="0" />
  <g
     id="g468"
     clip-path="url(#clipPath4821)"
     transform="translate(-77.931618,-32.931618)">
    <path
       d="M 63,11.42 43.29,0 0,25.09 v 50.19 l 41.1,23.8 V 76.35 L 19.61,63.92 V 36.42 C 34.08,28.05 48.49,19.73 63,11.42 Z"
       id="path211"
       style="overflow:visible;fill:url(#traptMain);fill-opacity:1"
       transform="matrix(1.5015015,0,0,1.5015015,105,49.924927)" />
    <path
       d="M 43.87,50.37 63.45,38.76 46.09,28.7 26.69,40.18 43.87,50.12 Z M 49.81,26.48 67,36.42 v 0.25 L 86.58,25.09 69.21,14.99 Z"
       id="path213"
       style="overflow:visible;fill:url(#traptMain);fill-opacity:1.0"
       transform="matrix(1.5015015,0,0,1.5015015,105,49.924927)" />
    <path
       d="M 67,36.67 V 63.92 L 67.03,86.61 86.58,75.28 V 25.09 Z M 63.45,65.98 V 38.76 L 43.87,50.37 43.9,77.31 43.93,100 63.45,88.67 Z"
       id="path215"
       style="overflow:visible;fill:url(#traptAccent);fill-opacity:1"
       transform="matrix(1.5015015,0,0,1.5015015,105,49.924927)" />
  </g>
  <g
     id="g7378"
     transform="translate(-77.931618,-32.931618)">
    <path
       style="fill:url(#traptMain);fill-opacity:1"
       d="m 132.55,-35 v 7.85 h 10.5 V 0 h 8.4 V -27.15 H 162.1 V -35 Z"
       transform="translate(88.699997,142.5)"
       id="path7356" />
    <path
       id="path7354"
       style="fill:url(#traptMain);fill-opacity:1"
       d="M 103.39961,-35 V 0 H 111.8 v -11 h 4.94922 c 8.59999,0 13.80078,-4.500007 13.80078,-12 0,-7.499993 -5.20079,-12 -13.80078,-12 z m 8.40039,7.849609 h 4.80078 c 3.25,0 5.19922,1.550394 5.19922,4.150391 0,2.599997 -1.94922,4.150391 -5.19922,4.150391 H 111.8 Z"
       transform="translate(88.699997,142.5)" />
    <path
       id="path7350"
       style="fill:url(#traptMain);fill-opacity:1"
       d="m 78.550003,-35 -14,35 h 9.050781 l 2,-5.5 h 13.84961 l 2,5.5 h 9.048826 L 86.499222,-35 Z m 3.949219,10.199219 h 0.05078 c 0.05,0 0.94922,3.150392 1.699219,5.15039 l 2.5,6.800782 h -8.449219 l 2.5,-6.800782 c 0.749999,-1.999998 1.649219,-5.15039 1.69922,-5.15039 z"
       transform="translate(88.699997,142.5)" />
    <path
       id="path7346"
       style="fill:url(#traptMain);fill-opacity:1"
       d="M 34.450394,-35 V 0 h 8.40039 v -11.400391 h 4.298828 L 53.649612,0 h 9.400391 l -7.75,-12.900391 c 4.049996,-1.899998 6.300781,-5.399614 6.300781,-10.099609 0,-7.199993 -5.301571,-12 -14.101562,-12 z m 8.40039,7.849609 h 5.798828 c 2.999997,0 4.201172,2.250393 4.201172,4.150391 0,1.899998 -1.201175,4.150391 -4.201172,4.150391 h -5.798828 z"
       transform="translate(88.699997,142.5)" />
    <path
       style="fill:url(#traptMain);fill-opacity:1"
       d="m 0.5,-35 v 7.85 H 11 V 0 h 8.4 V -27.15 H 30.05 V -35 Z"
       transform="translate(88.699997,142.5)"
       id="path225" />
  </g>
  <g
     id="g7382"
     transform="translate(-77.931618,-32.931618)">
    <path
       id="path7063"
       style="opacity:1;fill:url(#traptAccent);fill-opacity:1;stroke:none;stroke-width:0.096;stroke-linecap:round;stroke-linejoin:bevel;stroke-opacity:1"
       d="m 180.80078,142.5 h 8.39844 l -3.35938,-8.40039 h -5.03906 z" />
    <path
       id="rect6696"
       style="display:inline;opacity:1;fill:url(#traptMain);fill-opacity:1;stroke:none;stroke-width:0.096;stroke-linecap:round;stroke-linejoin:bevel;stroke-opacity:1"
       d="m 185.83984,134.09961 3.35938,8.40039 v -8.40039 z" />
  </g>
  <defs
     v-gra="od"
     id="defs272">
    <linearGradient
       id="traptAccent">
      <stop
         style="stop-color:#5f9ea0;stop-opacity:1;"
         offset="0"
         id="stop7480" />
    </linearGradient>
    <linearGradient
       id="traptMain">
      <stop
         style="stop-color:#222222;stop-opacity:1;"
         offset="0"
         id="stop7460" />
    </linearGradient>
    <clipPath
       clipPathUnits="userSpaceOnUse"
       id="clipPath4821">
      <rect
         style="display:none;opacity:1;fill:#ce1126;stroke-width:0.107033;stroke-linecap:round;stroke-linejoin:bevel"
         id="rect4823"
         width="161.60001"
         height="43.507156"
         x="89.199997"
         y="103.19688" />
      <path
         id="lpe_path-effect4825"
         style="opacity:1;fill:#ce1126;stroke-width:0.107033;stroke-linecap:round;stroke-linejoin:bevel"
         class="powerclip"
         d="M 100,44.924927 H 240 V 205.07508 H 100 Z M 89.199997,103.19688 v 43.50715 H 250.8 v -43.50715 z" />
    </clipPath>
  </defs>
</svg>
